<svg width="28" height="28" viewBox="0 0 28 28" fill="none" xmlns="http://www.w3.org/2000/svg">
<path d="M9.625 1.75C10.8547 1.74972 12.0674 2.0375 13.1659 2.59027C14.2644 3.14305 15.2181 3.94545 15.9507 4.93318C16.6832 5.92091 17.1742 7.0665 17.3843 8.27814C17.5944 9.48979 17.5177 10.7338 17.1605 11.9105L26.25 21V26.25H21L11.9105 17.1605C10.8273 17.4893 9.68602 17.5807 8.56433 17.4285C7.44265 17.2763 6.36696 16.8841 5.41057 16.2785C4.45418 15.673 3.63957 14.8684 3.02225 13.9196C2.40494 12.9708 1.99944 11.9 1.83338 10.7803C1.66731 9.66057 1.74459 8.51821 2.05996 7.43106C2.37531 6.34391 2.92134 5.33753 3.66082 4.48049C4.4003 3.62345 5.31585 2.93591 6.34509 2.46471C7.37432 1.99351 8.49303 1.74974 9.625 1.75ZM9.625 15.75C10.2274 15.7498 10.8266 15.6608 11.403 15.4858L12.4066 15.1813L13.1477 15.9224L15.9311 18.7057L17.1378 17.5L18.375 18.7372L17.1684 19.9439L18.5561 21.3316L19.7628 20.125L21 21.3622L19.7934 22.5689L21.7245 24.5H24.5V21.7245L15.9233 13.1477L15.1813 12.4066L15.4858 11.403C15.8597 10.1701 15.8354 8.8507 15.4163 7.63242C14.9972 6.41414 14.2046 5.35905 13.1512 4.61722C12.0979 3.8754 10.8374 3.48461 9.54914 3.50046C8.26088 3.51631 7.01042 3.93799 5.97563 4.7055C4.94084 5.47302 4.17443 6.54729 3.7854 7.77551C3.39637 9.00373 3.40454 10.3234 3.80875 11.5467C4.21296 12.77 4.99263 13.8347 6.03684 14.5893C7.08105 15.344 8.33664 15.7501 9.625 15.75Z" fill="#031C1D"/>
<path d="M8.75 10.5C7.7835 10.5 7 9.7165 7 8.75C7 7.7835 7.7835 7 8.75 7C9.7165 7 10.5 7.7835 10.5 8.75C10.5 9.7165 9.7165 10.5 8.75 10.5Z" fill="#031C1D"/>
</svg>
