<svg width="33" height="27" viewBox="0 0 33 27" fill="none" xmlns="http://www.w3.org/2000/svg">
<path d="M32.1069 22.1018L32.1084 22.1042C32.367 22.5047 32.5004 22.9555 32.5 23.4109C32.4996 23.8662 32.3653 24.3169 32.1059 24.7171L32.104 24.72C31.8365 25.1394 31.4462 25.4931 30.9682 25.7398C30.49 25.9867 29.9443 26.1158 29.3877 26.111V26.1109H29.3833L3.61814 26.1109L3.61345 26.111C3.05636 26.1162 2.51015 25.9873 2.03146 25.7404C1.55293 25.4936 1.16226 25.1397 0.894495 24.72L0.892806 24.7174C0.633825 24.3171 0.5 23.8664 0.5 23.411C0.5 22.9556 0.633825 22.5049 0.892814 22.1045L0.894592 22.1017L13.7748 1.89858C13.7751 1.89798 13.7755 1.89737 13.7759 1.89677C14.0481 1.47896 14.4403 1.1266 14.9184 0.87941L14.691 0.439532L14.9184 0.87941C15.3974 0.631779 15.943 0.5 16.5007 0.5C17.0584 0.5 17.6041 0.631779 18.0831 0.87941L18.3121 0.436445L18.0831 0.87941C18.5612 1.12659 18.9533 1.47892 19.2255 1.8967C19.2259 1.89733 19.2263 1.89796 19.2267 1.89858L32.1069 22.1018ZM16.5007 0C15.8651 0 15.2404 0.150042 14.6888 0.435255H18.3127C17.761 0.150042 17.1364 0 16.5007 0ZM14.9825 2.41215L14.9825 2.4121L14.9772 2.42033L2.09599 22.6251C1.94381 22.8589 1.86084 23.1299 1.86084 23.4097C1.86084 23.6899 1.94411 23.9613 2.09682 24.1955C2.25967 24.4463 2.48931 24.6475 2.75725 24.7833L2.9834 24.3374L2.75725 24.7833C3.02378 24.9185 3.32184 24.9861 3.62175 24.9821H29.3797C29.6796 24.9861 29.9777 24.9185 30.2442 24.7833C30.5115 24.6478 30.7407 24.4473 30.9034 24.1973C31.0572 23.9641 31.142 23.6933 31.1436 23.4132C31.1452 23.1331 31.0635 22.8611 30.9121 22.6262C30.9117 22.6257 30.9114 22.6252 30.9111 22.6247L18.0301 2.42033L18.0302 2.42027L18.0248 2.41215C17.8603 2.16491 17.6318 1.96609 17.3659 1.83024C17.1002 1.69446 16.8033 1.62456 16.5037 1.62456C16.204 1.62456 15.9072 1.69446 15.6415 1.83024C15.3756 1.96609 15.147 2.16491 14.9825 2.41215ZM15.8222 15.9666V10.6444C15.8222 10.5121 15.88 10.3735 16.0025 10.2628C16.1268 10.1506 16.3053 10.08 16.5007 10.08C16.6962 10.08 16.8747 10.1506 16.9989 10.2628C17.1215 10.3735 17.1792 10.5121 17.1792 10.6444V15.9666C17.1792 16.0989 17.1215 16.2375 16.9989 16.3482C16.8747 16.4604 16.6962 16.531 16.5007 16.531C16.3053 16.531 16.1268 16.4604 16.0025 16.3482C15.88 16.2375 15.8222 16.0989 15.8222 15.9666ZM17.7685 20.7565C17.7685 20.9614 17.7015 21.1666 17.5686 21.3462C17.4351 21.5267 17.2398 21.6744 17.002 21.7634C16.764 21.8524 16.4997 21.8763 16.2443 21.8304C15.9889 21.7845 15.7605 21.6722 15.5859 21.5145C15.4117 21.3572 15.2999 21.1633 15.2552 20.9605C15.2107 20.7584 15.233 20.5482 15.322 20.354C15.4115 20.1589 15.567 19.9838 15.777 19.8571C15.9873 19.7301 16.2393 19.6599 16.5007 19.6599C16.8525 19.6599 17.1808 19.7866 17.4156 19.9986C17.6487 20.2091 17.7685 20.4831 17.7685 20.7565Z" fill="#E55B5B" stroke="#D8814F"/>
</svg>
