<svg width="72" height="72" viewBox="0 0 72 72" fill="none" xmlns="http://www.w3.org/2000/svg">
<path d="M35.9998 0.166016C55.7906 0.166016 71.8332 16.2086 71.8332 35.9993C71.8332 55.7901 55.7906 71.8327 35.9998 71.8327C16.2091 71.8327 0.166504 55.7901 0.166504 35.9993C0.166504 16.2086 16.2091 0.166016 35.9998 0.166016ZM48.8998 18.7993C48.5234 18.517 48.095 18.3116 47.6392 18.1948C47.1833 18.078 46.7089 18.0521 46.2431 18.1187C45.7772 18.1852 45.3291 18.3429 44.9241 18.5826C44.5192 18.8224 44.1655 19.1396 43.8832 19.516L35.9998 30.0259L28.1165 19.516C27.8342 19.1396 27.4804 18.8224 27.0755 18.5826C26.6706 18.3429 26.2224 18.1852 25.7566 18.1187C25.2908 18.0521 24.8164 18.078 24.3605 18.1948C23.9047 18.3116 23.4763 18.517 23.0998 18.7993C22.7234 19.0817 22.4062 19.4354 22.1665 19.8403C21.9267 20.2452 21.7691 20.6934 21.7025 21.1593C21.636 21.6251 21.6618 22.0995 21.7786 22.5553C21.8954 23.0112 22.1008 23.4396 22.3832 23.816L31.5207 35.9993L22.3832 48.1827C21.813 48.943 21.5681 49.8986 21.7025 50.8394C21.8369 51.7803 22.3395 52.6291 23.0998 53.1993C23.8601 53.7696 24.8158 54.0144 25.7566 53.88C26.6974 53.7456 27.5463 53.243 28.1165 52.4827L35.9998 41.9728L43.8832 52.4827C44.4534 53.243 45.3023 53.7456 46.2431 53.88C47.1839 54.0144 48.1395 53.7696 48.8998 53.1993C49.6601 52.6291 50.1628 51.7803 50.2972 50.8394C50.4316 49.8986 50.1867 48.943 49.6165 48.1827L40.479 35.9993L49.6165 23.816C49.8988 23.4396 50.1043 23.0112 50.2211 22.5553C50.3378 22.0995 50.3637 21.6251 50.2972 21.1593C50.2306 20.6934 50.073 20.2452 49.8332 19.8403C49.5935 19.4354 49.2763 19.0817 48.8998 18.7993Z" fill="#EEF9F3"/>
</svg>
