<svg width="47" height="47" viewBox="0 0 47 47" fill="none" xmlns="http://www.w3.org/2000/svg">
<path d="M42.8323 1.77344H4.17117C2.84694 1.77344 1.77344 2.84694 1.77344 4.17117V42.8323C1.77344 44.1566 2.84694 45.2301 4.17117 45.2301H42.8323C44.1566 45.2301 45.2301 44.1566 45.2301 42.8323V4.17117C45.2301 2.84694 44.1566 1.77344 42.8323 1.77344Z" fill="#3D5A98"/>
<path d="M31.7543 45.2259V28.3977H37.4016L38.2461 21.8397H31.7543V17.6538C31.7543 15.7555 32.283 14.4593 35.0039 14.4593H38.4775V8.58428C36.7954 8.4093 35.1051 8.32595 33.4139 8.33459C28.4129 8.33459 24.9686 11.3823 24.9686 17.0039V21.8397H19.3213V28.3977H24.9686V45.2259H31.7543Z" fill="white"/>
</svg>
