<svg width="26" height="26" viewBox="0 0 26 26" fill="none" xmlns="http://www.w3.org/2000/svg">
<g clip-path="url(#clip0_31_107)">
<path fill-rule="evenodd" clip-rule="evenodd" d="M22.4115 7.15542L13.8627 14.235C13.6198 14.4363 13.3142 14.5464 12.9987 14.5464C12.6833 14.5464 12.3777 14.4363 12.1348 14.235L3.58998 7.15542C3.54413 7.29342 3.52081 7.43791 3.52091 7.58333V18.4167C3.52091 18.7758 3.66359 19.1203 3.91754 19.3742C4.1715 19.6282 4.51593 19.7708 4.87508 19.7708H21.1251C21.4842 19.7708 21.8287 19.6282 22.0826 19.3742C22.3366 19.1203 22.4792 18.7758 22.4792 18.4167V7.58333C22.4798 7.43798 22.4569 7.2935 22.4115 7.15542ZM4.87508 4.875H21.1251C21.8434 4.875 22.5322 5.16034 23.0402 5.66825C23.5481 6.17616 23.8334 6.86504 23.8334 7.58333V18.4167C23.8334 19.135 23.5481 19.8238 23.0402 20.3317C22.5322 20.8397 21.8434 21.125 21.1251 21.125H4.87508C4.15679 21.125 3.46791 20.8397 2.96 20.3317C2.45209 19.8238 2.16675 19.135 2.16675 18.4167V7.58333C2.16675 6.86504 2.45209 6.17616 2.96 5.66825C3.46791 5.16034 4.15679 4.875 4.87508 4.875ZM4.59071 6.22917L12.1415 12.4624C12.3834 12.6621 12.687 12.7717 13.0007 12.7725C13.3144 12.7732 13.6186 12.6651 13.8613 12.4665L21.488 6.22917H4.59071Z" fill="#031C1D"/>
</g>
<defs>
<clipPath id="clip0_31_107">
<rect width="21.6667" height="21.6667" fill="white" transform="translate(2.16675 2.16669)"/>
</clipPath>
</defs>
</svg>
