<svg width="46" height="46" viewBox="0 0 46 46" fill="none" xmlns="http://www.w3.org/2000/svg">
<g clip-path="url(#clip0_269_301)">
<path d="M35.2188 0H10.7812C4.82693 0 0 4.82693 0 10.7812V35.2188C0 41.1731 4.82693 46 10.7812 46H35.2188C41.1731 46 46 41.1731 46 35.2188V10.7812C46 4.82693 41.1731 0 35.2188 0Z" fill="url(#paint0_radial_269_301)"/>
<path d="M35.2188 0H10.7812C4.82693 0 0 4.82693 0 10.7812V35.2188C0 41.1731 4.82693 46 10.7812 46H35.2188C41.1731 46 46 41.1731 46 35.2188V10.7812C46 4.82693 41.1731 0 35.2188 0Z" fill="url(#paint1_radial_269_301)"/>
<path d="M23.0016 5.03125C18.1217 5.03125 17.5091 5.05263 15.5926 5.13978C13.6796 5.22747 12.3738 5.53024 11.2314 5.97461C10.0494 6.43353 9.04691 7.04752 8.0482 8.04659C7.0486 9.04547 6.43461 10.0479 5.97425 11.2294C5.52863 12.3722 5.22549 13.6785 5.13942 15.5906C5.05371 17.5073 5.03125 18.12 5.03125 23.0002C5.03125 27.8803 5.05281 28.4909 5.13978 30.4074C5.22783 32.3204 5.5306 33.6262 5.97461 34.7686C6.43389 35.9506 7.04788 36.9531 8.04695 37.9518C9.04547 38.9514 10.0479 39.5668 11.229 40.0258C12.3724 40.4701 13.6784 40.7729 15.5909 40.8606C17.5077 40.9477 18.1197 40.9691 22.9995 40.9691C27.88 40.9691 28.4905 40.9477 30.4071 40.8606C32.32 40.7729 33.6273 40.4701 34.7706 40.0258C35.9521 39.5668 36.9531 38.9514 37.9514 37.9518C38.951 36.9531 39.5648 35.9506 40.0254 34.7692C40.4671 33.6262 40.7704 32.32 40.8602 30.4078C40.9463 28.4913 40.9688 27.8803 40.9688 23.0002C40.9688 18.12 40.9463 17.5077 40.8602 15.5909C40.7704 13.678 40.4671 12.3724 40.0254 11.2299C39.5648 10.0479 38.951 9.04547 37.9514 8.04659C36.952 7.04716 35.9524 6.43317 34.7695 5.97479C33.624 5.53024 32.3175 5.22729 30.4046 5.13978C28.4878 5.05263 27.8776 5.03125 22.996 5.03125H23.0016ZM21.3896 8.2694C21.8681 8.26868 22.402 8.2694 23.0016 8.2694C27.7995 8.2694 28.368 8.28665 30.2626 8.37272C32.0146 8.45286 32.9655 8.74557 33.5989 8.99156C34.4375 9.31716 35.0353 9.70654 35.6638 10.3356C36.2927 10.9645 36.6819 11.5634 37.0084 12.402C37.2544 13.0345 37.5475 13.9854 37.6273 15.7374C37.7134 17.6317 37.732 18.2005 37.732 22.996C37.732 27.7915 37.7134 28.3606 37.6273 30.2547C37.5471 32.0067 37.2544 32.9576 37.0084 33.5902C36.6828 34.4288 36.2927 35.0259 35.6638 35.6545C35.0349 36.2834 34.4378 36.6726 33.5989 36.9984C32.9662 37.2454 32.0146 37.5374 30.2626 37.6176C28.3683 37.7037 27.7995 37.7223 23.0016 37.7223C18.2036 37.7223 17.6349 37.7037 15.7408 37.6176C13.9889 37.5367 13.0379 37.244 12.404 36.998C11.5656 36.6722 10.9665 36.283 10.3376 35.6541C9.70869 35.0252 9.31949 34.4278 8.993 33.5888C8.74701 32.9561 8.45394 32.0052 8.37416 30.2533C8.28809 28.359 8.27084 27.7901 8.27084 22.9916C8.27084 18.193 8.28809 17.6272 8.37416 15.7329C8.4543 13.9809 8.74701 13.03 8.993 12.3966C9.31877 11.558 9.7087 10.9591 10.3378 10.3302C10.9669 9.70133 11.5656 9.31195 12.4042 8.98563C13.0376 8.73856 13.9889 8.44657 15.7408 8.36607C17.3984 8.29114 18.0408 8.26868 21.3896 8.26491V8.2694ZM32.5933 11.2529C31.4029 11.2529 30.4371 12.2179 30.4371 13.4085C30.4371 14.5989 31.4029 15.5647 32.5933 15.5647C33.7838 15.5647 34.7496 14.5989 34.7496 13.4085C34.7496 12.218 33.7838 11.2522 32.5933 11.2522V11.2529ZM23.0016 13.7723C17.9057 13.7723 13.7739 17.9041 13.7739 23.0002C13.7739 28.0963 17.9057 32.2261 23.0016 32.2261C28.0977 32.2261 32.228 28.0963 32.228 23.0002C32.228 17.9042 28.0974 13.7723 23.0013 13.7723H23.0016ZM23.0016 17.0105C26.3095 17.0105 28.9913 19.692 28.9913 23.0002C28.9913 26.3081 26.3095 28.9899 23.0016 28.9899C19.6938 28.9899 17.0121 26.3081 17.0121 23.0002C17.0121 19.692 19.6936 17.0105 23.0016 17.0105Z" fill="white"/>
</g>
<defs>
<radialGradient id="paint0_radial_269_301" cx="0" cy="0" r="1" gradientUnits="userSpaceOnUse" gradientTransform="translate(12.2187 49.5429) rotate(-90) scale(45.5894 42.4018)">
<stop stop-color="#FFDD55"/>
<stop offset="0.1" stop-color="#FFDD55"/>
<stop offset="0.5" stop-color="#FF543E"/>
<stop offset="1" stop-color="#C837AB"/>
</radialGradient>
<radialGradient id="paint1_radial_269_301" cx="0" cy="0" r="1" gradientUnits="userSpaceOnUse" gradientTransform="translate(-7.70518 3.31362) rotate(78.681) scale(20.3787 84.0017)">
<stop stop-color="#3771C8"/>
<stop offset="0.128" stop-color="#3771C8"/>
<stop offset="1" stop-color="#6600FF" stop-opacity="0"/>
</radialGradient>
<clipPath id="clip0_269_301">
<rect width="46" height="46" fill="white"/>
</clipPath>
</defs>
</svg>
