<svg width="24" height="30" viewBox="0 0 24 30" fill="none" xmlns="http://www.w3.org/2000/svg">
<path d="M11.9999 6.75C13.105 6.75 14.1648 7.14509 14.9462 7.84835C15.7276 8.55161 16.1666 9.50544 16.1666 10.5C16.1666 10.9925 16.0588 11.4801 15.8494 11.9351C15.64 12.39 15.3331 12.8034 14.9462 13.1517C14.5593 13.4999 14.1 13.7761 13.5944 13.9645C13.0889 14.153 12.5471 14.25 11.9999 14.25C10.8949 14.25 9.83504 13.8549 9.05364 13.1517C8.27224 12.4484 7.83325 11.4946 7.83325 10.5C7.83325 9.50544 8.27224 8.55161 9.05364 7.84835C9.83504 7.14509 10.8949 6.75 11.9999 6.75ZM11.9999 0C15.0941 0 18.0616 1.10625 20.2495 3.07538C22.4374 5.04451 23.6666 7.71523 23.6666 10.5C23.6666 18.375 11.9999 30 11.9999 30C11.9999 30 0.333252 18.375 0.333252 10.5C0.333252 7.71523 1.56242 5.04451 3.75034 3.07538C5.93826 1.10625 8.90573 0 11.9999 0ZM11.9999 3C9.78978 3 7.67017 3.79018 6.10736 5.1967C4.54456 6.60322 3.66659 8.51088 3.66659 10.5C3.66659 12 3.66659 15 11.9999 25.065C20.3333 15 20.3333 12 20.3333 10.5C20.3333 8.51088 19.4553 6.60322 17.8925 5.1967C16.3297 3.79018 14.2101 3 11.9999 3Z" fill="#121C17"/>
</svg>
