<svg width="24" height="21" viewBox="0 0 24 21" fill="none" xmlns="http://www.w3.org/2000/svg">
<path d="M2.83342 10.5H14.3126M5.25008 13.875L1.62508 10.5L5.25008 7.125M11.2917 4.875V3.75C11.2917 3.15326 11.5464 2.58097 11.9996 2.15901C12.4528 1.73705 13.0675 1.5 13.7084 1.5H19.7501C20.391 1.5 21.0057 1.73705 21.4589 2.15901C21.9121 2.58097 22.1667 3.15326 22.1667 3.75V17.25C22.1667 17.8467 21.9121 18.419 21.4589 18.841C21.0057 19.2629 20.391 19.5 19.7501 19.5H13.7084C13.0675 19.5 12.4528 19.2629 11.9996 18.841C11.5464 18.419 11.2917 17.8467 11.2917 17.25V16.125" stroke="#EEF9F3" stroke-width="2" stroke-linecap="round" stroke-linejoin="round"/>
</svg>
