<svg width="107" height="107" viewBox="0 0 107 107" fill="none" xmlns="http://www.w3.org/2000/svg">
<g clip-path="url(#clip0_881_1501)">
<path d="M53.5 0C67.6891 0 81.297 5.63659 91.3302 15.6698C101.363 25.703 107 39.3109 107 53.5C107 67.6891 101.363 81.297 91.3302 91.3302C81.297 101.363 67.6891 107 53.5 107C39.3109 107 25.703 101.363 15.6698 91.3302C5.63659 81.297 0 67.6891 0 53.5C0 39.3109 5.63659 25.703 15.6698 15.6698C25.703 5.63659 39.3109 0 53.5 0ZM10.0312 53.5C10.0312 65.0286 14.611 76.0851 22.763 84.2371C30.9149 92.389 41.9714 96.9688 53.5 96.9688C65.0286 96.9688 76.0851 92.389 84.2371 84.2371C92.389 76.0851 96.9688 65.0286 96.9688 53.5C96.9688 41.9714 92.389 30.9149 84.2371 22.763C76.0851 14.611 65.0286 10.0312 53.5 10.0312C41.9714 10.0312 30.9149 14.611 22.763 22.763C14.611 30.9149 10.0312 41.9714 10.0312 53.5ZM42.6596 34.9556L71.1751 52.0689C71.4215 52.2177 71.6253 52.4277 71.7668 52.6784C71.9083 52.9291 71.9826 53.2121 71.9826 53.5C71.9826 53.7879 71.9083 54.0709 71.7668 54.3216C71.6253 54.5723 71.4215 54.7823 71.1751 54.9311L42.6596 72.0444C42.406 72.1972 42.1164 72.2799 41.8204 72.284C41.5244 72.2882 41.2326 72.2137 40.9748 72.0682C40.7171 71.9226 40.5026 71.7112 40.3533 71.4556C40.2039 71.2 40.1252 70.9093 40.125 70.6133V36.3934C40.124 36.0968 40.2019 35.8053 40.3507 35.5487C40.4996 35.2922 40.714 35.0798 40.9719 34.9335C41.2299 34.7871 41.5222 34.7121 41.8187 34.7159C42.1153 34.7198 42.4055 34.8025 42.6596 34.9556Z" fill="#EEF9F3"/>
</g>
<defs>
<clipPath id="clip0_881_1501">
<rect width="107" height="107" fill="white"/>
</clipPath>
</defs>
</svg>
