<svg width="21" height="21" viewBox="0 0 21 21" fill="none" xmlns="http://www.w3.org/2000/svg">
<path d="M15.3986 13.5431H14.4255L14.0807 13.2107C14.8504 12.3169 15.413 11.2642 15.7282 10.1277C16.0433 8.99129 16.1032 7.79928 15.9036 6.637C15.3247 3.21475 12.4671 0.481872 9.01817 0.0633236C7.80566 -0.0899813 6.57412 0.0359599 5.4178 0.43151C4.26148 0.82706 3.21102 1.48173 2.34681 2.34544C1.4826 3.20914 0.827545 4.25898 0.431763 5.41463C0.0359809 6.57027 -0.0900341 7.80108 0.0633607 9.01288C0.482155 12.4598 3.21664 15.3157 6.6409 15.8943C7.80386 16.0938 8.99656 16.0339 10.1337 15.719C11.2708 15.404 12.3241 14.8417 13.2184 14.0724L13.551 14.4171V15.3896L18.7859 20.6215C19.291 21.1262 20.1162 21.1262 20.6212 20.6215C21.1263 20.1167 21.1263 19.292 20.6212 18.7872L15.3986 13.5431ZM8.00814 13.5431C4.94108 13.5431 2.46527 11.0687 2.46527 8.00344C2.46527 4.93819 4.94108 2.46382 8.00814 2.46382C11.0752 2.46382 13.551 4.93819 13.551 8.00344C13.551 11.0687 11.0752 13.5431 8.00814 13.5431Z" fill="#031C1D"/>
</svg>
