<svg width="31" height="31" viewBox="0 0 31 31" fill="none" xmlns="http://www.w3.org/2000/svg">
<g clip-path="url(#clip0_110_733)">
<path d="M15.4999 14.6391C16.6921 14.6391 17.8575 14.2855 18.8488 13.6232C19.8401 12.9608 20.6127 12.0194 21.0689 10.918C21.5251 9.81658 21.6445 8.60459 21.4119 7.43532C21.1793 6.26604 20.6052 5.19199 19.7622 4.34899C18.9192 3.50599 17.8452 2.9319 16.6759 2.69932C15.5066 2.46674 14.2946 2.58611 13.1932 3.04234C12.0918 3.49856 11.1504 4.27116 10.488 5.26242C9.82569 6.25369 9.47217 7.41909 9.47217 8.61128C9.47217 10.2099 10.1072 11.7431 11.2377 12.8736C12.3681 14.004 13.9013 14.6391 15.4999 14.6391ZM15.4999 4.30572C16.3515 4.30572 17.1839 4.55824 17.892 5.03134C18.6 5.50444 19.1519 6.17687 19.4778 6.96361C19.8036 7.75035 19.8889 8.61605 19.7228 9.45125C19.5566 10.2864 19.1466 11.0536 18.5444 11.6558C17.9423 12.2579 17.1751 12.668 16.3399 12.8341C15.5047 13.0002 14.639 12.915 13.8523 12.5891C13.0655 12.2632 12.3931 11.7114 11.92 11.0033C11.4469 10.2953 11.1944 9.46283 11.1944 8.61128C11.1944 7.46937 11.648 6.37424 12.4555 5.56679C13.2629 4.75934 14.358 4.30572 15.4999 4.30572Z" fill="#031C1D"/>
<path d="M26.2382 20.9853C24.8572 19.5257 23.1931 18.3631 21.3475 17.5686C19.502 16.7741 17.5137 16.3643 15.5044 16.3643C13.4951 16.3643 11.5069 16.7741 9.66131 17.5686C7.81575 18.3631 6.15162 19.5257 4.77067 20.9853C4.47127 21.3051 4.30499 21.727 4.30567 22.165V26.6945C4.30567 27.1512 4.48711 27.5893 4.81009 27.9123C5.13307 28.2353 5.57113 28.4167 6.02789 28.4167H24.9723C25.4291 28.4167 25.8671 28.2353 26.1901 27.9123C26.5131 27.5893 26.6946 27.1512 26.6946 26.6945V22.165C26.6976 21.7281 26.5344 21.3064 26.2382 20.9853ZM24.9723 26.6945H6.02789V22.1564C7.24828 20.8714 8.71739 19.8481 10.3458 19.1488C11.9742 18.4495 13.7279 18.0889 15.5001 18.0889C17.2723 18.0889 19.026 18.4495 20.6544 19.1488C22.2828 19.8481 23.7519 20.8714 24.9723 22.1564V26.6945Z" fill="#031C1D"/>
</g>
<defs>
<clipPath id="clip0_110_733">
<rect width="31" height="31" fill="white"/>
</clipPath>
</defs>
</svg>
