<svg width="30" height="30" viewBox="0 0 30 30" fill="none" xmlns="http://www.w3.org/2000/svg">
<path d="M24.9874 4.95656C23.6884 3.64488 22.1413 2.60485 20.4364 1.89707C18.7314 1.1893 16.9026 0.827945 15.0566 0.834061C7.32155 0.834061 1.01739 7.13823 1.01739 14.8732C1.01739 17.3524 1.66905 19.7607 2.88739 21.8857L0.904053 29.1674L8.34155 27.2124C10.3957 28.3316 12.7049 28.9266 15.0566 28.9266C22.7916 28.9266 29.0957 22.6224 29.0957 14.8874C29.0957 11.1332 27.6366 7.60573 24.9874 4.95656ZM15.0566 26.5466C12.9599 26.5466 10.9057 25.9799 9.10655 24.9174L8.68155 24.6624L4.26155 25.8241L5.43739 21.5174L5.15405 21.0782C3.98891 19.2182 3.37036 17.068 3.36905 14.8732C3.36905 8.44156 8.61072 3.19989 15.0424 3.19989C18.1591 3.19989 21.0916 4.41823 23.2874 6.62823C24.3748 7.71037 25.2366 8.99766 25.8227 10.4154C26.4088 11.8332 26.7075 13.3533 26.7016 14.8874C26.7299 21.3191 21.4882 26.5466 15.0566 26.5466ZM21.4599 17.8199C21.1057 17.6499 19.3774 16.7999 19.0657 16.6724C18.7399 16.5591 18.5132 16.5024 18.2724 16.8424C18.0316 17.1966 17.3657 17.9899 17.1674 18.2166C16.9691 18.4574 16.7566 18.4857 16.4024 18.3016C16.0482 18.1316 14.9149 17.7491 13.5832 16.5591C12.5349 15.6241 11.8407 14.4766 11.6282 14.1224C11.4299 13.7682 11.5999 13.5841 11.7841 13.3999C11.9399 13.2441 12.1382 12.9891 12.3082 12.7907C12.4782 12.5924 12.5491 12.4366 12.6624 12.2099C12.7757 11.9691 12.7191 11.7707 12.6341 11.6007C12.5491 11.4307 11.8407 9.70239 11.5574 8.99406C11.2741 8.31406 10.9766 8.39906 10.7641 8.38489H10.0841C9.84322 8.38489 9.47489 8.46989 9.14905 8.82406C8.83739 9.17823 7.93072 10.0282 7.93072 11.7566C7.93072 13.4849 9.19155 15.1566 9.36155 15.3832C9.53155 15.6241 11.8407 19.1657 15.3541 20.6816C16.1899 21.0499 16.8416 21.2624 17.3516 21.4182C18.1874 21.6874 18.9524 21.6449 19.5616 21.5599C20.2416 21.4607 21.6441 20.7099 21.9274 19.8882C22.2249 19.0666 22.2249 18.3724 22.1257 18.2166C22.0266 18.0607 21.8141 17.9899 21.4599 17.8199Z" fill="#121C17"/>
</svg>
